<?xml version="1.0" standalone="no"?>
<!DOCTYPE svg PUBLIC "-//W3C//DTD SVG 1.1//EN" "http://www.w3.org/Graphics/SVG/1.1/DTD/svg11.dtd" >
<!--
2013-9-30: Created.
-->
<svg>
<metadata>
Created by iconfont
</metadata>
<defs>

<font id="iconfont" horiz-adv-x="1024" >
  <font-face
    font-family="iconfont"
    font-weight="500"
    font-stretch="normal"
    units-per-em="1024"
    ascent="896"
    descent="-128"
  />
    <missing-glyph />
    
    <glyph glyph-name="detail" unicode="&#59384;" d="M768 768a128 128 0 0 0 128-128v-512a128 128 0 0 0-128-128H256a128 128 0 0 0-128 128V640a128 128 0 0 0 128 128z m0-85.333333H256a42.666667 42.666667 0 0 1-42.666667-42.666667v-512a42.666667 42.666667 0 0 1 42.666667-42.666667h512a42.666667 42.666667 0 0 1 42.666667 42.666667V640a42.666667 42.666667 0 0 1-42.666667 42.666667z m-298.666667-85.333334v-426.666666H256V597.333333h213.333333z m128-341.333333v-85.333333h-85.333333v85.333333h85.333333zM392.533333 520.533333H332.8v-273.066666h59.733333V520.533333zM682.666667 426.666667v-85.333334h-170.666667v85.333334h170.666667z m85.333333 170.666666v-85.333333h-256V597.333333h256z"  horiz-adv-x="1024" />

    
    <glyph glyph-name="list" unicode="&#59385;" d="M256 170.666667v-85.333334H170.666667v85.333334h85.333333z m597.333333 0v-85.333334H341.333333v85.333334h512zM256 341.333333v-85.333333H170.666667v85.333333h85.333333z m597.333333 0v-85.333333H341.333333v85.333333h512zM256 512v-85.333333H170.666667V512h85.333333z m597.333333 0v-85.333333H341.333333V512h512zM256 682.666667v-85.333334H170.666667V682.666667h85.333333z m597.333333 0v-85.333334H341.333333V682.666667h512z"  horiz-adv-x="1024" />

    
    <glyph glyph-name="dashboard" unicode="&#59386;" d="M512 810.666667c235.648 0 426.666667-191.018667 426.666667-426.666667s-191.018667-426.666667-426.666667-426.666667S85.333333 148.352 85.333333 384 276.352 810.666667 512 810.666667z m0-85.333334a341.333333 341.333333 0 1 1 0-682.666666 341.333333 341.333333 0 0 1 0 682.666666z m38.826667-224.981333v-161.749333a116.394667 116.394667 0 1 0-77.653334 0V500.352h77.653334zM512 267.648a38.826667 38.826667 0 1 1 0-77.568 38.826667 38.826667 0 0 1 0 77.568z m0 387.84A271.530667 271.530667 0 0 0 783.530667 384v-38.826667h-77.610667V384a193.92 193.92 0 0 1-387.84 0v-38.826667H240.469333V384A271.530667 271.530667 0 0 0 512 655.530667z"  horiz-adv-x="1024" />

    
    <glyph glyph-name="form" unicode="&#59387;" d="M768 768a128 128 0 0 0 127.786667-120.490667L896 640v-512a128 128 0 0 0-120.490667-127.786667L768 0H256a128 128 0 0 0-127.786667 120.490667L128 128V640a128 128 0 0 0 120.490667 127.786667L256 768h512z m0-85.333333H256a42.666667 42.666667 0 0 1-42.666667-42.666667v-512a42.666667 42.666667 0 0 1 42.666667-42.666667h512a42.666667 42.666667 0 0 1 42.666667 42.666667V640a42.666667 42.666667 0 0 1-42.666667 42.666667z m-42.666667-426.666667v-85.333333H298.666667v85.333333h426.666666z m-170.666666 170.666667v-85.333334H298.666667v85.333334h256z m128 213.333333v-85.333333h85.333333v-85.333334h-170.666667V640h85.333334z m-213.333334-42.666667v-85.333333H298.666667V597.333333h170.666666z"  horiz-adv-x="1024" />

    
    <glyph glyph-name="eye" unicode="&#58897;" d="M512 682.666667c198.826667 0 365.866667-135.978667 413.226667-320C877.866667 178.645333 710.826667 42.666667 512 42.666667s-365.866667 135.978667-413.226667 320C146.133333 546.688 313.173333 682.666667 512 682.666667z m0-85.333334a341.589333 341.589333 0 0 1-320.853333-224.597333l-3.498667-10.026667 3.456-10.112a341.632 341.632 0 0 1 309.76-224.426666L512 128c145.493333 0 272.64 91.776 320.853333 224.597333l3.456 10.112-3.413333 10.026667a341.632 341.632 0 0 1-309.76 224.426667L512 597.333333z m0-92.458666a142.208 142.208 0 1 0 0-284.416 142.208 142.208 0 0 0 0 284.416z m0-71.082667a71.125333 71.125333 0 1 1 0-142.250667 71.125333 71.125333 0 0 1 0 142.250667z"  horiz-adv-x="1032" />

    
    <glyph glyph-name="eye-close" unicode="&#58880;" d="M261.802667 715.861333l603.392-603.392-60.330667-60.330666L201.472 655.530667l60.330667 60.330666z m-32.170667-118.613333L290.133333 536.661333a340.650667 340.650667 0 0 1-98.986666-142.634666l-3.456-10.026667 3.456-10.112a341.632 341.632 0 0 1 309.76-224.426667L512 149.333333a340.522667 340.522667 0 0 1 136.917333 28.586667l63.829334-63.829333A424.789333 424.789333 0 0 0 512 64c-198.826667 0-365.866667 135.978667-413.226667 320a426.581333 426.581333 0 0 0 130.858667 213.205333zM512 704c198.826667 0 365.866667-135.978667 413.226667-320a426.069333 426.069333 0 0 0-108.970667-192.426667l-60.288 60.288a340.181333 340.181333 0 0 1 76.928 122.026667l3.413333 10.154667-3.413333 10.026666a341.632 341.632 0 0 1-309.76 224.426667L512 618.666667c-36.821333 0-72.533333-5.888-106.026667-16.853334L339.925333 667.904A425.216 425.216 0 0 0 512 704z m-129.066667-260.138667l57.984-57.984V384c0-39.253333 31.786667-71.125333 71.082667-71.125333l1.834667 0.128 58.026666-58.026667a142.208 142.208 0 0 0-188.928 188.928zM512 526.208a142.208 142.208 0 0 0 139.52-169.898667l-167.210667 167.253334A142.933333 142.933333 0 0 0 512 526.165333z"  horiz-adv-x="1032" />

    
    <glyph glyph-name="copy" unicode="&#58895;" d="M725.333333 597.333333v-597.333333H128V597.333333h597.333333z m-85.333333-85.333333H213.333333v-426.666667h426.666667V512z m256 256v-597.333333h-85.333333V682.666667H298.666667V768h597.333333z m-426.666667-341.333333v-85.333334h85.333334v-85.333333h-85.333334v-85.333333H384v85.333333H298.666667v85.333333h85.333333v85.333334h85.333333z"  horiz-adv-x="1024" />

    
    <glyph glyph-name="unlock" unicode="&#58901;" d="M810.666667 554.666667h-85.333334a170.666667 170.666667 0 0 1-341.333333 0v-128h384a128 128 0 0 0 128-128v-256a128 128 0 0 0-128-128H256a128 128 0 0 0-128 128v256a128 128 0 0 0 128 128h42.666667V554.666667a256 256 0 1 0 512 0z m-42.666667-213.333334H256a42.666667 42.666667 0 0 1-42.666667-42.666666v-256a42.666667 42.666667 0 0 1 42.666667-42.666667h512a42.666667 42.666667 0 0 1 42.666667 42.666667v256a42.666667 42.666667 0 0 1-42.666667 42.666666z"  horiz-adv-x="1040" />

    
    <glyph glyph-name="exit" unicode="&#58902;" d="M426.666667 640H256v-512h170.666667v-85.333333H256a85.333333 85.333333 0 0 0-85.333333 85.333333V640a85.333333 85.333333 0 0 0 85.333333 85.333333h170.666667v-85.333333z m396.501333-225.834667a42.666667 42.666667 0 0 0 0-60.330666l-211.2-211.2-60.330667 60.330666L690.005333 341.333333H341.930667v85.333334h348.032L551.68 565.034667l60.330667 60.330666z"  horiz-adv-x="1024" />

    
    <glyph glyph-name="lock" unicode="&#58903;" d="M512 832a256 256 0 0 0 256-256v-128a128 128 0 0 0 128-128v-256a128 128 0 0 0-128-128H256a128 128 0 0 0-128 128v256a128 128 0 0 0 128 128v128a256 256 0 0 0 256 256z m256-469.333333H256a42.666667 42.666667 0 0 1-42.666667-42.666667v-256a42.666667 42.666667 0 0 1 42.666667-42.666667h512a42.666667 42.666667 0 0 1 42.666667 42.666667v256a42.666667 42.666667 0 0 1-42.666667 42.666667z m-256 384a170.666667 170.666667 0 0 1-170.666667-170.666667v-128h341.333334v128a170.666667 170.666667 0 0 1-170.666667 170.666667z"  horiz-adv-x="1024" />

    
    <glyph glyph-name="chart-bar" unicode="&#58898;" d="M780.8 768A115.2 115.2 0 0 0 896 652.8v-537.6a115.2 115.2 0 0 0-115.2-115.2H243.2A115.2 115.2 0 0 0 128 115.2V652.8A115.2 115.2 0 0 0 243.2 768z m-7.466667-85.333333H250.666667A37.333333 37.333333 0 0 1 213.333333 645.333333v-522.666666c0-20.608 16.725333-37.333333 37.333334-37.333334h522.666666a37.333333 37.333333 0 0 1 37.333334 37.333334V645.333333A37.333333 37.333333 0 0 1 773.333333 682.666667zM554.666667 597.333333v-426.666666h-85.333334V597.333333h85.333334z m170.666666-256v-170.666666h-85.333333v170.666666h85.333333z m-341.333333 128v-298.666666H298.666667v298.666666h85.333333z"  horiz-adv-x="1024" />

    
    <glyph glyph-name="chart-pie" unicode="&#58899;" d="M426.666667 682.666667a384 384 0 0 0 85.333333-9.6V384h289.066667A384 384 0 1 0 426.666667 682.666667z m0-93.696A290.304 290.304 0 1 1 716.928 298.666667H426.666667V588.970667zM597.333333 853.333333a384 384 0 0 0 384-384h-384V853.333333z m85.333334-97.792V554.666667h200.874666A298.624 298.624 0 0 1 682.666667 755.541333z"  horiz-adv-x="1024" />

    
    <glyph glyph-name="toggle-left" unicode="&#58882;" d="M853.333333 170.666667v-85.333334H170.666667v85.333334h682.666666zM339.797333 512v-270.634667L170.666667 376.746667 339.797333 512zM853.333333 341.333333v-85.333333H426.666667v85.333333h426.666666z m0 170.666667v-85.333333H426.666667V512h426.666666z m0 170.666667v-85.333334H170.666667V682.666667h682.666666z"  horiz-adv-x="1040" />

    
    <glyph glyph-name="toggle-right" unicode="&#58883;" d="M853.333333 170.666667v-85.333334H170.666667v85.333334h682.666666zM170.666667 512l169.130666-135.296L170.666667 241.365333V512z m682.666666-170.666667v-85.333333H426.666667v85.333333h426.666666z m0 170.666667v-85.333333H426.666667V512h426.666666z m0 170.666667v-85.333334H170.666667V682.666667h682.666666z"  horiz-adv-x="1040" />

    
    <glyph glyph-name="upload" unicode="&#59374;" d="M256 298.666667v-170.666667h512v170.666667h85.333333v-170.666667a85.333333 85.333333 0 0 0-85.333333-85.333333H256a85.333333 85.333333 0 0 0-85.333333 85.333333v170.666667h85.333333z m225.834667 396.501333a42.666667 42.666667 0 0 0 60.330666 0l211.2-211.2-60.330666-60.330667L554.666667 562.005333v-348.074666h-85.333334V561.92L330.965333 423.68 270.634667 483.968z"  horiz-adv-x="1024" />

    
    <glyph glyph-name="loading" unicode="&#58950;" d="M512.896 588.757333a111.146667 111.146667 0 0 0-111.36 110.933334C401.536 761.045333 451.413333 810.666667 512.896 810.666667a111.146667 111.146667 0 0 0 111.317333-110.933334 111.36 111.36 0 0 0-111.317333-110.976zM275.754667 500.565333A101.632 101.632 0 0 0 173.994667 602.026667a101.546667 101.546667 0 0 0 101.76 101.376A101.546667 101.546667 0 0 0 377.514667 602.026667a101.717333 101.717333 0 0 0-101.76-101.461334z m-100.608-229.376c-36.352 0-69.12 21.845333-82.986667 55.296a89.258667 89.258667 0 0 0 19.541333 97.493334 90.026667 90.026667 0 0 0 97.877334 19.370666 89.429333 89.429333 0 0 0 55.338666-82.773333c0.213333-48.981333-39.936-88.96-89.770666-89.386667z m100.608-227.072a77.226667 77.226667 0 0 0-54.016 22.4 74.666667 74.666667 0 0 0-22.058667 53.418667 75.946667 75.946667 0 0 0 76.074667 75.861333 75.946667 75.946667 0 0 0 76.117333-75.861333c0.170667-41.557333-33.834667-75.477333-76.117333-75.818667zM512.896-42.666667a67.413333 67.413333 0 0 0-47.104 19.541334 65.152 65.152 0 0 0-19.285333 46.592c0 36.565333 29.738667 66.133333 66.389333 66.133333 36.608 0 66.346667-29.568 66.346667-66.133333 0-36.522667-29.738667-66.133333-66.346667-66.133334z m240.64 111.786667a54.485333 54.485333 0 0 0-38.144 15.829333 52.693333 52.693333 0 0 0-15.573333 37.674667c-0.128 14.122667 5.504 27.690667 15.573333 37.717333s23.765333 15.701333 38.101333 15.786667c29.653333 0 53.717333-23.978667 53.717334-53.504a53.76 53.76 0 0 0-53.717334-53.504z m98.432 247.338667a43.946667 43.946667 0 0 0-43.946667 43.904c0 24.192 19.669333 43.818667 43.946667 43.818666a43.904 43.904 0 1 0 0.042667-87.722666h-0.042667z m-132.736 282.282666a33.194667 33.194667 0 0 0 7.594667 36.266667 34.56 34.56 0 0 0 36.864 7.381333 33.621333 33.621333 0 0 0 21.461333-30.421333 34.090667 34.090667 0 0 0-12.586667-41.472 34.304 34.304 0 0 0-53.333333 28.245333z"  horiz-adv-x="1024" />

    
    <glyph glyph-name="minus" unicode="&#58881;" d="M128 405.333333h768v-85.333333H128z"  horiz-adv-x="1024" />

    
    <glyph glyph-name="email" unicode="&#58885;" d="M938.666667 156.458667c0-60.416-44.16-109.866667-99.925334-113.578667L832 42.666667h-640c-56.661333 0-102.997333 47.104-106.453333 106.581333L85.333333 156.458667V640a85.333333 85.333333 0 0 0 85.333334 85.333333h682.666666a85.333333 85.333333 0 0 0 85.333334-85.333333v-483.541333zM170.666667 482.133333v-325.674666c0-15.232 8.789333-26.112 18.176-28.117334L192 128h640c9.472 0 19.2 9.386667 21.034667 23.552l0.298666 4.906667V481.706667l-297.130666-170.325334a85.333333 85.333333 0 0 0-84.565334-0.170666L170.666667 482.133333zM832 640h-640c-9.472 0-19.2-9.386667-21.034667-23.552L170.666667 611.541333V580.266667l343.125333-194.858667L853.333333 580.053333v31.488c0 15.232-8.789333 26.112-18.176 28.117334L832 640z"  horiz-adv-x="1025" />

    
    <glyph glyph-name="atm" unicode="&#58886;" d="M161.28 834.005333l221.866667-71.552 17.493333-6.101333 14.976-5.546667c26.88-10.154667 53.888-21.589333 79.445333-34.133333 20.906667-10.24 40.064-20.864 57.173334-32l3.882666-2.602667 10.112-1.706666c184.533333-33.109333 324.181333-184.874667 329.6-368.426667l0.170667-11.050667C896 86.39999999999998 713.386667-85.33333300000004 490.666667-85.33333300000004S85.333333 86.39999999999998 85.333333 300.88533299999995C85.333333 436.906667 159.488 558.506667 274.389333 627.626667l8.448 4.949333-3.2 5.973333-118.314666 195.498667zM352.682667 682.666667l4.864-8.789334 3.925333-7.893333 4.565333-9.941333c7.936-18.176 16.938667-43.733333 19.669334-70.912C260.522667 544.256 170.666667 432.512 170.666667 300.88533299999995 170.666667 134.74133300000005 313.941333 0 490.666667 0c176.768 0 320 134.741333 320 300.885333 0 155.605333-125.44 283.477333-286.421334 299.221334a336.512 336.512 0 0 1-42.581333 27.392l-15.616 8.277333-15.786667 7.765333-7.850666 3.669334-15.445334 6.912-21.888 9.173333-13.269333 5.248-22.016 8.192L352.64 682.666667z m128.426666-261.205334c37.973333-33.194667 37.376-115.797333 20.821334-144.554666-22.656 0-42.24-1.024-62.506667-1.322667 20.224 48.981333 6.357333 108.416-20.096 124.586667 23.893333 8.362667 35.712 14.08 61.738667 21.333333z m174.848 20.693334c41.386667-35.370667 37.461333-115.84 20.992-144.554667-22.784 0-37.632-1.365333-62.506666-1.365333 27.306667 52.906667 10.538667 105.898667-20.224 124.586666 23.466667 9.941333 35.797333 14.08 61.738666 21.333334z"  horiz-adv-x="1024" />

    
    <glyph glyph-name="calendar" unicode="&#58887;" d="M768 768a128 128 0 0 0 128-128v-512a128 128 0 0 0-128-128H256a128 128 0 0 0-128 128V640a128 128 0 0 0 128 128z m42.666667-170.666667H213.333333v-469.333333a42.666667 42.666667 0 0 1 42.666667-42.666667h512a42.666667 42.666667 0 0 1 42.666667 42.666667V597.333333z m-170.666667-256a85.333333 85.333333 0 1 0 0-170.666666 85.333333 85.333333 0 0 0 0 170.666666z"  horiz-adv-x="1024" />

    
    <glyph glyph-name="account" unicode="&#58888;" d="M691.2 273.066667a213.333333 213.333333 0 0 0 213.12-204.074667l0.213333-9.258667V0h-85.333333v59.733333a128 128 0 0 1-120.490667 127.786667L691.2 187.733333H341.333333a128 128 0 0 1-127.786666-120.490666L213.333333 59.733333V0H128v59.733333a213.333333 213.333333 0 0 0 204.074667 213.12L341.333333 273.066667h349.866667zM516.266667 768a192 192 0 1 0 0-384 192 192 0 0 0 0 384z m0-85.333333a106.666667 106.666667 0 1 1 0-213.333334 106.666667 106.666667 0 0 1 0 213.333334z"  horiz-adv-x="1024" />

    
    <glyph glyph-name="success" unicode="&#58890;" d="M512 810.666667c235.648 0 426.666667-191.018667 426.666667-426.666667s-191.018667-426.666667-426.666667-426.666667S85.333333 148.352 85.333333 384 276.352 810.666667 512 810.666667z m0-77.568a349.098667 349.098667 0 1 1 0-698.197334 349.098667 349.098667 0 0 1 0 698.197334z m151.253333-187.306667l54.869334-54.826667-274.304-274.304-164.565334 164.565334 54.869334 54.869333 109.696-109.696 219.434666 219.392z"  horiz-adv-x="1024" />

    
    <glyph glyph-name="warning" unicode="&#58891;" d="M512 810.666667c235.648 0 426.666667-191.018667 426.666667-426.666667s-191.018667-426.666667-426.666667-426.666667S85.333333 148.352 85.333333 384 276.352 810.666667 512 810.666667z m0-85.333334a341.333333 341.333333 0 1 1 0-682.666666 341.333333 341.333333 0 0 1 0 682.666666z m0-512a42.666667 42.666667 0 1 0 0-85.333333 42.666667 42.666667 0 0 0 0 85.333333z m38.4 426.666667v-341.333333h-76.8V640h76.8z"  horiz-adv-x="1024" />

    
    <glyph glyph-name="prompt" unicode="&#58892;" d="M512-42.666667c235.648 0 426.666667 191.018667 426.666667 426.666667S747.648 810.666667 512 810.666667 85.333333 619.648 85.333333 384s191.018667-426.666667 426.666667-426.666667z m0 85.333334a341.333333 341.333333 0 1 0 0 682.666666 341.333333 341.333333 0 0 0 0-682.666666z m0 512a42.666667 42.666667 0 1 1 0 85.333333 42.666667 42.666667 0 0 1 0-85.333333z m38.4-426.666667v341.333333h-76.8v-341.333333h76.8z"  horiz-adv-x="1024" />

    
    <glyph glyph-name="error" unicode="&#58893;" d="M512 810.666667c235.648 0 426.666667-191.018667 426.666667-426.666667s-191.018667-426.666667-426.666667-426.666667S85.333333 148.352 85.333333 384 276.352 810.666667 512 810.666667z m0-77.568a349.098667 349.098667 0 1 1 0-698.197334 349.098667 349.098667 0 0 1 0 698.197334z m123.733333-171.136l54.272-54.314667-123.733333-123.733333 123.733333-123.648-54.314666-54.314667-123.690667 123.733333-123.733333-123.733333L334.037333 260.266667l123.733334 123.690666-123.733334 123.733334L388.309333 561.92 512 438.186667l123.733333 123.733333z"  horiz-adv-x="1024" />

    
    <glyph glyph-name="favorites-filling" unicode="&#58894;" d="M660.906667 559.701333l245.674666-34.944a42.666667 42.666667 0 0 0 23.338667-73.216l-176.896-167.68 41.984-238.250666a42.666667 42.666667 0 0 0-61.44-45.397334L512 113.621333l-221.568-113.408a42.666667 42.666667 0 0 0-61.44 45.397334l41.984 238.250666-176.896 167.68A42.666667 42.666667 0 0 0 117.418667 524.8l245.632 34.944 110.933333 218.624a42.666667 42.666667 0 0 0 76.074667 0l110.890666-218.624z"  horiz-adv-x="1024" />

    
    <glyph glyph-name="arrow-right" unicode="&#58905;" d="M323.669333 625.365333L384 685.653333l271.530667-271.530666a42.666667 42.666667 0 0 0 0-60.330667L384 82.304l-60.330667 60.330667L565.034667 384 323.669333 625.365333z"  horiz-adv-x="1024" />

    
    <glyph glyph-name="arrow-left" unicode="&#58909;" d="M700.330667 625.365333L640 685.653333l-271.530667-271.530666a42.666667 42.666667 0 0 1 0-60.330667L640 82.304l60.330667 60.330667L458.965333 384l241.365334 241.365333z"  horiz-adv-x="1024" />

    
    <glyph glyph-name="arrow-up" unicode="&#58917;" d="M753.365333 195.669333L813.653333 256l-271.530666 271.530667a42.666667 42.666667 0 0 1-60.330667 0L210.304 256l60.330667-60.330667L512 437.034667l241.365333-241.365334z"  horiz-adv-x="1024" />

    
    <glyph glyph-name="arrow-down" unicode="&#58941;" d="M753.365333 572.330667L813.653333 512l-271.530666-271.530667a42.666667 42.666667 0 0 0-60.330667 0L210.304 512l60.330667 60.330667L512 330.965333l241.365333 241.365334z"  horiz-adv-x="1024" />

    
    <glyph glyph-name="add" unicode="&#58965;" d="M554.666667 725.333333v-298.666666h298.666666v-85.333334h-298.709333L554.666667 42.666667h-85.333334l-0.042666 298.666666H170.666667v85.333334h298.666666V725.333333h85.333334z"  horiz-adv-x="1024" />

    
    <glyph glyph-name="arrow-double-left" unicode="&#58969;" d="M723.2 625.365333L512 414.165333a42.666667 42.666667 0 0 1 0-60.330666l211.2-211.2 60.330667 60.330666L602.453333 384l181.034667 181.034667-60.330667 60.330666z m-241.365333 0l-211.2-211.2-3.541334-4.010666a42.666667 42.666667 0 0 1 3.541334-56.32l211.2-211.2 60.330666 60.330666L361.130667 384l181.034666 181.034667-60.330666 60.330666z"  horiz-adv-x="1024" />

    
    <glyph glyph-name="arrow-double-right" unicode="&#58974;" d="M300.8 625.365333l211.2-211.2a42.666667 42.666667 0 0 0 0-60.330666l-211.2-211.2-60.330667 60.330666L421.504 384 240.469333 565.034667 300.8 625.365333z m241.365333 0l211.2-211.2 3.541334-4.010666a42.666667 42.666667 0 0 0-3.541334-56.32l-211.2-211.2-60.330666 60.330666L662.869333 384l-181.034666 181.034667 60.330666 60.330666z"  horiz-adv-x="1024" />

    
    <glyph glyph-name="close" unicode="&#58918;" d="M783.530667 595.2L572.330667 384l211.2-211.2-60.330667-60.330667-211.2 211.2-211.2-211.2-60.330667 60.330667 211.2 211.2-211.2 211.2L300.8 655.530667l211.2-211.2 211.2 211.2 60.330667-60.330667z"  horiz-adv-x="1024" />

    
    <glyph glyph-name="search" unicode="&#58966;" d="M611.968 245.632a256 256 0 1 1-362.026667 362.069333 256 256 0 0 1 362.026667-362.069333z m60.330667 422.4a341.376 341.376 0 0 0 28.245333-450.773333c0.682667-0.554667 1.28-1.152 1.92-1.792l181.034667-180.992-60.330667-60.373334-181.034667 181.034667a42.24 42.24 0 0 0-1.792 1.92A341.376 341.376 0 0 0 189.610667 668.032a341.333333 341.333333 0 0 0 482.688 0z"  horiz-adv-x="1024" />

    
    <glyph glyph-name="ascending" unicode="&#58910;" d="M412.928 28.928h85.333333V590.336l138.368-138.368 60.330667 60.373333-211.2 211.2a42.666667 42.666667 0 0 1-72.832-30.208v-664.405333z"  horiz-adv-x="1024" />

    
    <glyph glyph-name="descending" unicode="&#58911;" d="M611.626667 732.373333h-85.333334v-561.408L387.968 309.333333l-60.373333-60.373333 211.2-211.2a42.666667 42.666667 0 0 1 72.832 30.208V732.373333z"  horiz-adv-x="1024" />

    
    <glyph glyph-name="clock" unicode="&#58913;" d="M512 810.666667c235.648 0 426.666667-191.018667 426.666667-426.666667s-191.018667-426.666667-426.666667-426.666667S85.333333 148.352 85.333333 384 276.352 810.666667 512 810.666667z m0-77.568a349.098667 349.098667 0 1 1 0-698.197334 349.098667 349.098667 0 0 1 0 698.197334zM550.4 597.333333v-211.669333l159.829333-92.330667-38.4-66.517333L473.6 341.333333V512h-0.042667l0.042667 85.333333h76.8z"  horiz-adv-x="1024" />

    
    <glyph glyph-name="cry" unicode="&#58973;" d="M512 810.666667c235.648 0 426.666667-191.018667 426.666667-426.666667s-191.018667-426.666667-426.666667-426.666667S85.333333 148.352 85.333333 384 276.352 810.666667 512 810.666667z m0-85.333334a341.333333 341.333333 0 1 1 0-682.666666 341.333333 341.333333 0 0 1 0 682.666666z m0-384a170.666667 170.666667 0 0 0 170.666667-170.666666h-85.333334a85.333333 85.333333 0 1 1-170.666666 0H341.333333a170.666667 170.666667 0 0 0 170.666667 170.666666zM384 512a42.666667 42.666667 0 1 0 0-85.333333 42.666667 42.666667 0 0 0 0 85.333333z m256 0a42.666667 42.666667 0 1 0 0-85.333333 42.666667 42.666667 0 0 0 0 85.333333z"  horiz-adv-x="1024" />

    
    <glyph glyph-name="delete-filling" unicode="&#58915;" d="M512 810.666667c235.648 0 426.666667-191.018667 426.666667-426.666667s-191.018667-426.666667-426.666667-426.666667S85.333333 148.352 85.333333 384 276.352 810.666667 512 810.666667z m123.733333-248.746667L512 438.314667 388.266667 561.92 334.037333 507.648l123.733334-123.733333-123.733334-123.648 54.314667-54.314667 123.690667 123.733333 123.733333-123.733333 54.272 54.314667-123.733333 123.690666 123.733333 123.733334-54.314667 54.272z"  horiz-adv-x="1024" />

    
    <glyph glyph-name="download" unicode="&#58920;" d="M256 298.666667v-170.666667h512v170.666667h85.333333v-170.666667a85.333333 85.333333 0 0 0-85.333333-85.333333H256a85.333333 85.333333 0 0 0-85.333333 85.333333v170.666667h85.333333z m298.666667 426.666666v-348.074666l138.368 138.368 60.330666-60.330667-211.2-211.2a42.666667 42.666667 0 0 0-60.330666 0l-211.2 211.2 60.330666 60.330667L469.333333 377.258667V725.333333h85.333334z"  horiz-adv-x="1024" />

    
    <glyph glyph-name="filter" unicode="&#58919;" d="M810.666667 810.666667a85.333333 85.333333 0 0 0 85.333333-85.333334v-102.613333a85.333333 85.333333 0 0 0-42.88-74.026667l-296.917333-194.645333-1.536-0.768v101.674667l256 167.765333V725.333333H213.333333v-102.4l256-166.016v-101.546666L171.178667 548.736A85.333333 85.333333 0 0 0 128 622.933333V725.333333a85.333333 85.333333 0 0 0 85.333333 85.333334h597.333334zM469.333333 75.776l85.333334 28.416V426.666667h85.333333v-384l-256-85.333334V426.666667h85.333333v-350.890667z"  horiz-adv-x="1024" />

    
    <glyph glyph-name="help" unicode="&#58995;" d="M512 810.666667c235.648 0 426.666667-191.018667 426.666667-426.666667s-191.018667-426.666667-426.666667-426.666667S85.333333 148.352 85.333333 384 276.352 810.666667 512 810.666667z m0-77.568a349.098667 349.098667 0 1 1 0-698.197334 349.098667 349.098667 0 0 1 0 698.197334z m0.341333-478.634667c12.330667 0 22.869333-3.498667 31.061334-11.690667a38.912 38.912 0 0 0 12.330666-29.909333c0-12.288-4.693333-22.272-12.885333-30.464-8.234667-7.637333-18.773333-11.733333-30.506667-11.733333a42.026667 42.026667 0 0 0-30.464 12.288 40.704 40.704 0 0 0-12.330666 29.909333c0 12.288 4.138667 22.272 12.330666 29.866667 8.192 8.234667 18.773333 11.733333 30.464 11.733333zM522.88 597.333333c37.546667 0 68.010667-9.984 91.434667-31.061333 23.466667-20.48 35.2-48.64 35.2-83.797333 0-28.714667-7.637333-52.778667-22.272-71.509334-5.290667-6.442667-21.717333-21.674667-49.237334-45.738666-11.136-9.386667-19.370667-19.925333-24.618666-30.464-6.442667-11.733333-9.386667-24.618667-9.386667-38.656v-9.984h-62.72v9.984c0 21.674667 3.541333 40.405333 11.733333 55.68 7.637333 16.384 29.866667 40.405333 66.218667 72.661333l9.984 11.093333c10.538667 13.525333 16.384 27.562667 16.384 42.837334 0 20.48-5.845333 36.309333-16.981333 48.042666-11.733333 11.733333-28.714667 17.578667-49.834667 17.578667-26.368 0-45.696-8.192-57.429333-25.173333-10.538667-14.08-15.786667-34.005333-15.786667-59.818667H384c0 42.794667 12.288 76.202667 36.906667 100.821333 24.618667 25.173333 58.624 37.504 101.973333 37.504z"  horiz-adv-x="1024" />

    
    <glyph glyph-name="picture" unicode="&#58929;" d="M789.333333 768A106.666667 106.666667 0 0 0 896 661.333333v-554.666666a106.666667 106.666667 0 0 0-106.666667-106.666667h-554.666666A106.666667 106.666667 0 0 0 128 106.666667v554.666666A106.666667 106.666667 0 0 0 234.666667 768z m0-71.125333h-554.666666a35.541333 35.541333 0 0 1-35.541334-35.541334v-554.666666c0-19.626667 15.914667-35.541333 35.541334-35.541334h68.053333l244.565333 244.565334a106.666667 106.666667 0 0 0 150.869334 0l126.72-126.72V661.333333a35.541333 35.541333 0 0 1-35.541334 35.541334zM647.850667 265.386667a35.541333 35.541333 0 0 1-50.261334 0l-194.304-194.261334H789.333333a35.541333 35.541333 0 0 1 32.256 20.565334z m-270.933334 360.405333a106.666667 106.666667 0 1 0 0-213.333333 106.666667 106.666667 0 0 0 0 213.333333z m0-71.125333a35.541333 35.541333 0 1 1 0-71.125334 35.541333 35.541333 0 0 1 0 71.125334z"  horiz-adv-x="1024" />

    
    <glyph glyph-name="refresh" unicode="&#58999;" d="M821.034667 678.314667v129.28h85.333333v-256a42.666667 42.666667 0 0 0-37.717333-42.325334l-4.949334-0.298666h-256v85.333333l173.184 0.042667a341.333333 341.333333 0 1 1 51.242667-328.789334l4.992 14.421334 81.28-25.984a425.429333 425.429333 0 0 0-199.509333-243.2c-206.122667-114.218667-465.834667-39.722667-580.053334 166.357333-114.261333 206.08-39.765333 465.792 166.314667 580.010667C478.72 853.376 690.346667 815.786667 821.034667 678.314667z"  horiz-adv-x="1024" />

    
    <glyph glyph-name="select" unicode="&#58930;" d="M409.002667 238.336l-163.370667 163.328L185.301333 341.333333l223.701334-223.701333 429.653333 429.696-60.288 60.373333z"  horiz-adv-x="1024" />

    
    <glyph glyph-name="semi-select" unicode="&#58931;" d="M256 426.666667h512v-85.333334H256z"  horiz-adv-x="1024" />

    
    <glyph glyph-name="smile" unicode="&#58975;" d="M512 810.666667c235.648 0 426.666667-191.018667 426.666667-426.666667s-191.018667-426.666667-426.666667-426.666667S85.333333 148.352 85.333333 384 276.352 810.666667 512 810.666667z m0-85.333334a341.333333 341.333333 0 1 1 0-682.666666 341.333333 341.333333 0 0 1 0 682.666666z m-85.333333-384a85.333333 85.333333 0 1 1 170.666666 0h85.333334a170.666667 170.666667 0 0 0-341.333334 0zM384 512a42.666667 42.666667 0 1 0 0-85.333333 42.666667 42.666667 0 0 0 0 85.333333z m256 0a42.666667 42.666667 0 1 0 0-85.333333 42.666667 42.666667 0 0 0 0 85.333333z"  horiz-adv-x="1024" />

    
    <glyph glyph-name="sorting" unicode="&#58932;" d="M419.626667 67.968a42.666667 42.666667 0 0 0-72.832-30.165333l-211.2 211.2 60.373333 60.330666 138.325333-138.368V732.373333h85.333334z m448 444.373333l-60.330667-60.373333-138.368 138.368v-561.408h-85.333333V693.333333a42.666667 42.666667 0 0 0 72.874666 30.165334l211.2-211.2z"  horiz-adv-x="1024" />

    
    <glyph glyph-name="ashbin" unicode="&#58937;" d="M640 768a85.333333 85.333333 0 0 0 85.333333-85.333333v-42.666667h128a42.666667 42.666667 0 1 0 0-85.333333h-42.666666v-426.666667a128 128 0 0 0-128-128H341.333333a128 128 0 0 0-128 128V554.666667H170.666667a42.666667 42.666667 0 0 0 0 85.333333h128V682.666667a85.333333 85.333333 0 0 0 85.333333 85.333333z m85.333333-213.333333H298.666667v-426.666667a42.666667 42.666667 0 0 1 42.666666-42.666667h341.333334a42.666667 42.666667 0 0 1 42.666666 42.666667V554.666667z m-85.333333 128H384v-42.666667h256V682.666667z"  horiz-adv-x="1024" />

    
    <glyph glyph-name="success-filling" unicode="&#58938;" d="M512 810.666667c235.648 0 426.666667-191.018667 426.666667-426.666667s-191.018667-426.666667-426.666667-426.666667S85.333333 148.352 85.333333 384 276.352 810.666667 512 810.666667z m151.253333-264.874667l-219.434666-219.392-109.653334 109.696-54.912-54.869333 164.565334-164.565334 274.304 274.304-54.869334 54.826667z"  horiz-adv-x="1024" />

    
    <glyph glyph-name="edit" unicode="&#58939;" d="M554.666667 59.733333v-85.333333H213.333333v85.333333h341.333334z m224.554666 707.669334l30.208-30.165334a85.333333 85.333333 0 0 0 0-120.704L341.76 148.906667l-181.333333-29.909334 30.464 180.778667 467.626666 467.626667a85.333333 85.333333 0 0 0 120.661334 0zM718.933333 707.072L270.549333 258.730667l-6.058666-36.053334 36.352 5.973334L749.056 676.906667l-30.165333 30.208z"  horiz-adv-x="1024" />

    
    <glyph glyph-name="set" unicode="&#59011;" d="M512 810.666667l384-213.333334v-426.666666l-384-213.333334-384 213.333334V597.333333l384 213.333334z m0-97.621334L213.333333 547.157333v-326.272l298.624-165.888L810.666667 220.928V547.114667l-298.666667 165.930666zM512 512a128 128 0 1 0 0-256 128 128 0 0 0 0 256z m0-76.8a51.2 51.2 0 1 1 0-102.4 51.2 51.2 0 0 1 0 102.4z"  horiz-adv-x="1024" />

    
    <glyph glyph-name="ellipsis" unicode="&#58964;" d="M341.333333 384a85.333333 85.333333 0 1 0-170.666666 0 85.333333 85.333333 0 0 0 170.666666 0z m256 0a85.333333 85.333333 0 1 0-170.666666 0 85.333333 85.333333 0 0 0 170.666666 0z m256 0a85.333333 85.333333 0 1 0-170.666666 0 85.333333 85.333333 0 0 0 170.666666 0z"  horiz-adv-x="1024" />

    
    <glyph glyph-name="attachment" unicode="&#58981;" d="M858.965333 640.426667a177.792 177.792 0 0 0 0-251.392l-301.696-301.696a248.874667 248.874667 0 1 0-352 352L406.4 640.426667l50.304-50.261334-201.130667-201.130666a177.792 177.792 0 0 1 251.392-251.434667l301.696 301.696a106.666667 106.666667 0 1 1-150.826666 150.869333L356.138667 288.426667a35.541333 35.541333 0 1 1 50.261333-50.304l276.565333 276.565333 50.261334-50.261333-276.522667-276.565334a106.666667 106.666667 0 1 0-150.869333 150.826667L607.573333 640.426667a177.792 177.792 0 0 0 251.434667 0z"  horiz-adv-x="1024" />

    
    <glyph glyph-name="switch" unicode="&#59059;" d="M828.032 334.293333a42.666667 42.666667 0 0 0 30.165333-72.832l-211.2-211.2-60.330666 60.373334 138.368 138.325333H163.626667v85.333333zM383.658667 782.293333l60.373333-60.330666-138.368-138.368h561.408v-85.333334H202.666667a42.666667 42.666667 0 0 0-30.165334 72.874667l211.2 211.2z"  horiz-adv-x="1024" />

    


  </font>
</defs>
</svg>
