<?xml version="1.0" standalone="no"?><!DOCTYPE svg PUBLIC "-//W3C//DTD SVG 1.1//EN" "http://www.w3.org/Graphics/SVG/1.1/DTD/svg11.dtd"><svg t="1649816541913" class="icon" viewBox="0 0 1024 1024" version="1.1" xmlns="http://www.w3.org/2000/svg" p-id="78542" xmlns:xlink="http://www.w3.org/1999/xlink" width="32" height="32"><defs><style type="text/css">@font-face { font-family: feedback-iconfont; src: url("//at.alicdn.com/t/font_1031158_u69w8yhxdu.woff2?t=1630033759944") format("woff2"), url("//at.alicdn.com/t/font_1031158_u69w8yhxdu.woff?t=1630033759944") format("woff"), url("//at.alicdn.com/t/font_1031158_u69w8yhxdu.ttf?t=1630033759944") format("truetype"); }
</style></defs><path d="M505.22112 978.097461c-6.775466-4.693333-14.789973-20.275199-19.353599-37.608106-4.061867-15.428266-5.60128-56.081065-2.880853-76.02517 1.010347-7.417173 1.5872-13.735253 1.276586-14.045867-0.3072-0.3072-6.611626-1.29024-14.004906-2.184533-42.598399-5.133653-88.070824-19.613013-122.685436-39.069012-7.34208-4.12672-14.219946-7.502506-15.281493-7.502506-1.06496 0-4.80256 5.526186-8.311466 12.281173-16.308906 31.399252-44.793172 62.576638-66.443945 72.72789-7.90528 3.703467-18.435413 4.608-23.309652 1.993387-7.345493-3.935573-9.5232-19.524266-5.133653-36.785492 3.003733-11.820373 15.076693-36.686505 24.866132-51.220478 4.324693-6.417066 12.86144-17.298773 18.978133-24.183466l11.117226-12.516693-5.79584-5.536427c-15.271253-14.592-43.950079-48.339625-43.950078-51.718825 0-1.211733 39.130452-28.392106 41.980585-29.163519 1.450667-0.392533 4.95616 3.078827 9.700693 9.598293 10.284373 14.138026 37.778772 41.325225 53.954558 53.350399 123.330556 91.685544 297.16479 68.655784 390.758387-51.763199 4.973227-6.4 9.816746-11.63264 10.76224-11.632639 1.877333 0 40.601599 26.255359 41.949865 28.439892 1.20832 1.95584-15.718399 23.893333-30.177279 39.113386-6.8608 7.222613-12.47232 13.7216-12.462079 14.438399 0.006827 0.7168 5.399893 6.980266 11.980799 13.919573 20.889599 22.026239 41.451519 56.412158 47.162025 78.878717 4.386133 17.257813 2.208427 32.846506-5.137066 36.785492-1.583787 0.84992-5.792426 1.536-9.34912 1.529174-22.507519-0.0512-59.839145-36.201812-81.998504-79.400958-4.266667-8.328533-8.393386-15.138133-9.164799-15.138133s-5.12 2.382507-9.659733 5.290667c-32.187732 20.626773-80.247464 38.420479-121.821863 45.103785-8.840533 1.419947-16.800426 3.14368-17.691306 3.833173-1.150293 0.887467-1.000107 5.051733 0.512 14.40768 2.699947 16.691199 1.65888 56.330238-1.901227 72.359251-3.67616 16.544426-9.3184 29.368319-16.281599 36.980052-7.99744 8.751786-14.219946 10.001066-22.207146 4.468053z m-442.524998-337.373856c-0.39936-1.047893-0.55296-55.937705-0.341334-121.972049l0.38912-120.067409H125.678946l0.395947 44.202665c0.300373 33.064959 0.863573 44.492799 2.249386 45.373438 1.017173 0.648533 16.769706 1.18784 35.003733 1.201494 25.828692 0.017067 33.522346-0.41984 34.815998-1.979734 1.10592-1.334613 1.788587-16.442026 2.054827-45.397331l0.39936-43.400532h62.928211v243.135138H200.594784l-0.39936-46.397438c-0.26624-31.180799-0.938667-47.056212-2.054827-48.401065-1.293653-1.563307-9.028266-2.00704-35.007145-2.00704s-33.713492 0.443733-35.007146 2.003626c-1.112747 1.348267-1.788587 17.223679-2.054826 48.401065l-0.395947 46.400852-31.129599 0.406187c-24.084479 0.314027-31.290026-0.027307-31.849812-1.501867z m254.716578-0.017066c-0.395947-1.037653-0.546133-55.920638-0.334507-121.958396l0.38912-120.06741h155.832315l0.4096 26.617173 0.4096 26.620586-46.110719 0.395946-46.107305 0.395947-0.426666 17.892693c-0.314027 13.30176 0.068267 18.203306 1.501866 19.114666 1.05472 0.669013 18.961066 1.2288 39.789226 1.242453l37.867518 0.023893-0.4096 26.637653-0.4096 26.641066-38.956372 0.750933-38.956372 0.750933v42.021545l47.947092 0.750934 47.947092 0.750933v52.531198l-79.831038 0.385707c-63.064745 0.3072-79.977811-0.006827-80.547837-1.501867z m209.773219 0c-0.395947-1.037653-0.546133-55.920638-0.334506-121.958396l0.38912-120.06741H590.165331l0.750933 94.552744 0.750933 94.552743 45.697705 0.750934 45.701119 0.750933v52.531198l-77.578237 0.385707c-61.269331 0.3072-77.738664-0.006827-78.301865-1.501867z m199.270394-0.013654c-0.38912-1.030827-0.539307-55.906985-0.324267-121.941329l0.385707-120.067409 32.965972-0.36864c18.128213-0.2048 33.706666 0.136533 34.618026 0.750933 2.218667 1.501867 35.498665 92.14293 42.837332 116.681383 7.63904 25.531732 7.04512 24.019626 8.772266 22.289066 0.812373-0.812373 4.355413-10.888533 7.877973-22.391466 7.755093-25.343999 38.437545-113.20661 40.461652-115.862183 1.109333-1.460907 9.188693-1.809067 34.577065-1.501867l33.133226 0.402774v243.138552l-28.057599 0.4096-28.057599 0.406186-0.99328-3.969706c-2.06848-8.250026 0.70656-95.109117 3.82976-119.917223 4.9152-39.041705 4.164267-39.645865-7.417173-6.007466-12.526933 36.382719-37.437439 103.27381-39.816532 106.939729-2.041173 3.140267-3.26656 3.375787-17.708373 3.375787-10.632533 0-15.974399-0.590507-16.977919-1.877333-1.856853-2.37568-32.443732-85.623464-40.802986-111.04597-5.89824-17.933653-9.106773-24.395093-9.000959-18.114559 0.027307 1.491627 1.40288 13.858133 3.061759 27.477332 3.10272 25.511252 5.843626 111.03573 3.816107 119.125329l-0.986453 3.9424h-27.740159c-20.807679 0-27.914239-0.47104-28.450133-1.877333z m19.824639-277.203617c-5.905066-10.011306-20.753066-28.695892-33.317545-41.915732-40.465065-42.591572-89.197224-69.509118-149.019302-82.322771-17.128106-3.669333-21.674666-4.017493-53.193385-4.089173-37.106345-0.078507-45.277865 0.843093-74.018131 8.369493-38.905172 10.1888-74.376531 28.269226-105.786023 53.917012-15.100586 12.332373-39.150932 37.696852-49.425065 52.125011-6.331733 8.88832-9.516373 12.178773-11.18208 11.543893-5.461333-2.075307-42.028372-26.658132-42.007892-28.238505 0.0512-3.55328 24.681813-34.447359 41.396906-51.916799l17.288532-18.077012-11.434666-12.397227c-20.889599-22.654293-40.919039-56.415571-46.499838-78.373544-4.386133-17.261226-2.208427-32.849919 5.137066-36.788905 1.583787-0.84992 5.792426-1.536 9.34912-1.529173 22.507519 0.0512 59.842558 36.201812 81.998504 79.400957 4.266667 8.328533 8.290986 15.138133 8.93952 15.138133 0.648533 0 6.5024-3.04128 13.011626-6.7584 33.464319-19.101013 87.190184-36.123305 123.767462-39.208959 6.314666-0.53248 12.270933-1.457493 13.236907-2.05824 1.327787-0.8192 1.133227-4.846933-0.79872-16.411306-3.556693-21.312853-2.454187-63.051091 2.126506-80.390824 7.256746-27.480746 18.909866-42.874879 30.774613-40.645972 11.062613 2.082133 21.794133 20.138666 27.378345 46.073172 3.642027 16.926719 3.7376 64.529065 0.160427 80.121171-1.327787 5.778773-1.969493 10.970453-1.430187 11.537066 0.539307 0.570027 7.724373 2.095787 15.96416 3.392853 47.752532 7.512746 83.967997 20.838399 128.351569 47.237119 3.017387 1.792 5.860693 2.658987 6.314666 1.921706s4.54656-8.78592 9.096533-17.885866c17.561599-35.136852 45.830825-67.065171 69.003945-77.933224 7.90528-3.703467 18.435413-4.608 23.309652-1.993387 7.345493 3.935573 9.5232 19.524266 5.133653 36.785493-3.201707 12.602026-15.523839 37.488639-26.562559 53.657598-5.154133 7.54688-15.622826 20.039679-23.261866 27.760639l-13.885439 14.039039 13.663573 14.523733c13.810346 14.68416 38.205439 45.827412 42.673492 54.476798 2.020693 3.915093 2.08896 5.00736 0.416426 6.550187-3.426987 3.157333-40.270505 24.791039-42.222932 24.791039-1.01376 0-3.017387-1.993387-4.450986-4.427093z" fill="#00ACC1" p-id="78543"></path></svg>