<?xml version="1.0" standalone="no"?><!DOCTYPE svg PUBLIC "-//W3C//DTD SVG 1.1//EN" "http://www.w3.org/Graphics/SVG/1.1/DTD/svg11.dtd"><svg width="40" height="40" xmlns="http://www.w3.org/2000/svg"><defs><linearGradient x1="41.938%" y1="6.447%" x2="27.158%" y2="90.477%" id="a"><stop stop-color="#4091FF" stop-opacity=".1" offset="0%"/><stop stop-color="#1B58F4" offset="100%"/></linearGradient></defs><g fill="none" fill-rule="evenodd"><path d="M19.62 0c11.046 0 20 8.954 20 20s-8.954 20-20 20a19.907 19.907 0 01-10.415-2.922l.016-.025a2 2 0 112.06-3.379l.007-.012A15.925 15.925 0 0019.62 36c8.837 0 16-7.163 16-16s-7.163-16-16-16l-.15-.005A2 2 0 0119.62 0z" fill="#FFF"/><path d="M19.62 0c11.046 0 20 8.954 20 20s-8.954 20-20 20a19.907 19.907 0 01-10.415-2.922l.016-.025a2 2 0 112.06-3.379l.007-.012A15.925 15.925 0 0019.62 36c8.837 0 16-7.163 16-16s-7.163-16-16-16l-.15-.005A2 2 0 0119.62 0z" fill="url(#a)"/></g></svg>