<?xml version="1.0" standalone="no"?><!DOCTYPE svg PUBLIC "-//W3C//DTD SVG 1.1//EN" "http://www.w3.org/Graphics/SVG/1.1/DTD/svg11.dtd"><svg t="1649816252647" class="icon" viewBox="0 0 1024 1024" version="1.1" xmlns="http://www.w3.org/2000/svg" p-id="75976" xmlns:xlink="http://www.w3.org/1999/xlink" width="32" height="32"><defs><style type="text/css">@font-face { font-family: feedback-iconfont; src: url("//at.alicdn.com/t/font_1031158_u69w8yhxdu.woff2?t=1630033759944") format("woff2"), url("//at.alicdn.com/t/font_1031158_u69w8yhxdu.woff?t=1630033759944") format("woff"), url("//at.alicdn.com/t/font_1031158_u69w8yhxdu.ttf?t=1630033759944") format("truetype"); }
</style></defs><path d="M416.270931 685.636877c-7.224835 0-13.004704-5.659454-13.004703-13.004704v-54.065851c0-7.224835 5.659454-13.004704 13.004703-13.004704 7.345249 0 13.004704 5.779868 13.004704 13.004704v54.065851c0 7.224835-5.659454 13.004704-13.004704 13.004704z m0 0M585.572907 685.636877c-7.224835 0-13.004704-5.659454-13.004704-13.004704v-54.065851c0-7.224835 5.659454-13.004704 13.004704-13.004704s13.004704 5.779868 13.004704 13.004704v54.065851c0 7.224835-5.659454 13.004704-13.004704 13.004704z m0 0" fill="#4085FF" p-id="75977"></path><path d="M533.433678 29.742239l-19.507055-16.978363-21.072437 15.05174c-116.560677 83.206021-231.796802 125.350894-342.57761 125.350894H117.523989V621.335842c4.575729 137.994356 129.083725 263.465663 380.267168 383.518344l13.486359 6.381938 13.727188-5.900282c253.23048-108.733772 381.591722-240.587018 381.591721-391.826905V156.658514l-29.140169-3.37159C723.567262 135.947319 607.849483 94.404516 533.433678 29.742239z m-28.778927 202.89746c50.212606 0 91.032926 45.155221 91.032925 100.666039 0 55.510818-40.82032 100.66604-91.032925 100.66604-50.212606 0-91.032926-45.155221-91.032926-100.66604 0-55.510818 40.82032-100.66604 91.032926-100.666039z m181.825023 421.328316c0 9.151458-7.224835 16.376294-16.376293 16.376294H339.326435c-9.151458 0-16.376294-7.224835-16.376294-16.376294v-91.996237c0-62.976482 79.834431-112.34619 181.825024-112.34619s181.825024 49.369708 181.825023 112.34619v91.996237z" fill="#4085FF" p-id="75978"></path><path d="M502.848542 619.047977c-7.224835 0-13.004704-5.779868-13.004704-13.004703v-71.285043c0-7.224835 5.779868-13.004704 13.004704-13.004703 7.224835 0 13.004704 5.779868 13.004704 13.004703v71.285043c0 6.984008-5.659454 13.004704-13.004704 13.004703z m0 0" fill="#4085FF" p-id="75979"></path></svg>