<?xml version="1.0" standalone="no"?><!DOCTYPE svg PUBLIC "-//W3C//DTD SVG 1.1//EN" "http://www.w3.org/Graphics/SVG/1.1/DTD/svg11.dtd"><svg t="1649816147743" class="icon" viewBox="0 0 1024 1024" version="1.1" xmlns="http://www.w3.org/2000/svg" p-id="2499" xmlns:xlink="http://www.w3.org/1999/xlink" width="32" height="32"><defs><style type="text/css">@font-face { font-family: feedback-iconfont; src: url("//at.alicdn.com/t/font_1031158_u69w8yhxdu.woff2?t=1630033759944") format("woff2"), url("//at.alicdn.com/t/font_1031158_u69w8yhxdu.woff?t=1630033759944") format("woff"), url("//at.alicdn.com/t/font_1031158_u69w8yhxdu.ttf?t=1630033759944") format("truetype"); }
</style></defs><path d="M512 512m-448 0a448 448 0 1 0 896 0 448 448 0 1 0-896 0Z" fill="#1794D4" p-id="2500"></path><path d="M576 224h-64v64h64V224zM320 320h64v64h-64v-64zM192.064 542.112C197.504 634.976 252.8 768 448 768c217.6 0 314.656-160 336-240 26.656 0 86.4-16 112-80-16-16-80-16-112 0 0-25.6-16-80-48-96-21.344 21.344-54.4 76.8-16 128-16 32-58.656 32-80 32H222.176c-16.96 0-31.136 13.216-30.112 30.112zM288 416H224v64h64v-64z" fill="#FFFFFF" p-id="2501"></path><path d="M320 416h64v64h-64v-64zM480 416h-64v64h64v-64zM512 416h64v64h-64v-64zM672 416h-64v64h64v-64zM480 320h-64v64h64v-64zM512 320h64v64h-64v-64z" fill="#FFFFFF" p-id="2502"></path></svg>